<svg xmlns="http://www.w3.org/2000/svg" xmlns:xlink="http://www.w3.org/1999/xlink" version="1.1" x="0px" y="0px" viewBox="0 0 100 125" enable-background="new 0 0 100 100" xml:space="preserve"><path fill-rule="evenodd" clip-rule="evenodd"  stroke="white" d="M82.283,79.441c-2.161-1.061-7.637-2.055-12.759-3.529  c0.015-0.016,0.031-0.029,0.046-0.043l-2.833-0.83c-0.552-0.189-1.09-0.385-1.608-0.59c-0.046-0.02-0.093-0.037-0.138-0.055  c-0.567-0.227-1.111-0.465-1.626-0.713c-0.035-0.018-0.069-0.035-0.104-0.051c-0.216-0.107-0.425-0.215-0.629-0.324  c-0.049-0.025-0.098-0.053-0.146-0.078c-0.204-0.113-0.402-0.229-0.593-0.344c-0.028-0.018-0.059-0.035-0.087-0.053  c-0.223-0.139-0.437-0.279-0.64-0.426c-0.001,0-0.003-0.002-0.004-0.002c-0.19-0.137-0.368-0.277-0.538-0.42  c-0.042-0.033-0.082-0.07-0.123-0.105c-0.13-0.113-0.254-0.229-0.371-0.346c-0.04-0.039-0.08-0.08-0.119-0.119  c-0.126-0.135-0.244-0.27-0.353-0.408c-0.017-0.021-0.035-0.041-0.051-0.061c-0.121-0.16-0.229-0.324-0.325-0.49  c-0.021-0.039-0.039-0.078-0.06-0.117c-0.068-0.127-0.129-0.258-0.182-0.389c-0.022-0.057-0.042-0.111-0.061-0.168  c-0.043-0.125-0.077-0.252-0.104-0.379c-0.012-0.055-0.026-0.109-0.035-0.164c-0.03-0.182-0.05-0.365-0.05-0.553v-3.238  c3.261-2.594,5.652-6.587,6.571-11.228c0.061,0.009,0.121,0.021,0.184,0.021c1.549,0,2.91-2.826,3.041-6.316  c0.077-2.067-0.298-3.897-0.937-5.049c0.791-1.773,1.708-4.324,2.502-7.852C72.011,26.76,67.5,17.323,67.5,17.323  s-2.72,3.518-15.201,1.1c-9.907-1.919-21.68-1.787-20.727,15.581c0.159,2.916,0.731,5.528,1.489,7.99  c-1.044,0.883-1.727,3.201-1.624,5.93c0.13,3.49,1.492,6.316,3.043,6.316c0.062,0,0.121-0.012,0.182-0.021  c0.919,4.643,3.311,8.638,6.572,11.229v3.236c0,0.188-0.02,0.371-0.05,0.553c-0.009,0.055-0.023,0.109-0.035,0.164  c-0.027,0.127-0.062,0.254-0.104,0.377c-0.02,0.057-0.04,0.115-0.062,0.17c-0.051,0.131-0.111,0.258-0.178,0.383  c-0.022,0.041-0.041,0.084-0.064,0.125c-0.095,0.164-0.201,0.326-0.321,0.484c-0.021,0.027-0.044,0.053-0.064,0.078  c-0.104,0.131-0.216,0.262-0.336,0.389c-0.043,0.045-0.089,0.09-0.134,0.135c-0.11,0.109-0.228,0.219-0.35,0.326  c-0.048,0.041-0.094,0.082-0.144,0.123c-0.155,0.129-0.318,0.258-0.49,0.381c-0.018,0.014-0.034,0.027-0.052,0.039  c-0.196,0.141-0.404,0.277-0.619,0.412c-0.044,0.027-0.09,0.055-0.135,0.08c-0.174,0.107-0.353,0.211-0.537,0.312  c-0.062,0.035-0.125,0.068-0.188,0.102c-0.185,0.1-0.373,0.197-0.567,0.291c-0.054,0.027-0.106,0.055-0.161,0.082  c-0.502,0.24-1.033,0.473-1.586,0.693c-0.066,0.027-0.135,0.055-0.202,0.08c-0.118,0.047-0.238,0.092-0.357,0.137L30.5,75.912h0.001  c-5.122,1.475-10.597,2.469-12.759,3.529c-1.428,0.699-2.645,1.719-3.488,3.232c0.001,0.001,0.002,0.002,0.002,0.003H47.99h37.757  C84.905,81.171,83.705,80.14,82.283,79.441z"/></svg>