<?xml version="1.0" encoding="iso-8859-1"?>
<!DOCTYPE svg PUBLIC "-//W3C//DTD SVG 1.1//EN" "http://www.w3.org/Graphics/SVG/1.1/DTD/svg11.dtd">
<svg 
 version="1.1" xmlns="http://www.w3.org/2000/svg" xmlns:xlink="http://www.w3.org/1999/xlink" x="0px" y="0px" width="512px"
	 height="512px" viewBox="0 0 512 512" style="enable-background:new 0 0 512 512;" xml:space="preserve"
><g fill="#ffffff" id="afcae5a789ccd549f9c6e2a2f812692b"><g fill="#ffffff"></g><path style="display: inline;" d="M169.885,403.184H511.5c0,0-248.152-139.29-283.15-200.712
		c-45.973-80.667,91.525-93.113,91.525-93.113s-106.521-6.059-181.769,22.344C23.073,175.117,0.5,234.102,0.5,234.102v169.082
		h99.139c0,0-11.561-24.923-18.327-61.185h56.265C151.583,378.723,169.885,403.184,169.885,403.184z M265.647,115.06
		c-2.366,0.433-4.915,0.932-7.622,1.501h-21.317c3.622-0.578,7.107-1.073,10.442-1.501H265.647z M241.416,120.57
		c-3.327,0.902-6.758,1.9-10.268,3.006h-27.342c4.08-1.106,8.113-2.108,12.072-3.006H241.416z M216.698,128.583
		c-2.491,0.948-4.995,1.946-7.506,3.007h-30.095c2.766-1.061,5.54-2.059,8.309-3.007H216.698z M200.255,135.599
		c-3.9,1.859-7.781,3.855-11.61,6.009h-31.78c4.101-2.163,8.28-4.159,12.497-6.009H200.255z M147.18,147.122h32.345
		c-5.593,3.626-10.991,7.618-16.061,12.022h-33.248C135.577,154.732,141.266,150.74,147.18,147.122z M115.658,173.171h34.075
		c-6.03,7.315-11.17,15.482-15.033,24.619c-0.129,0.308-0.245,0.62-0.378,0.931H98.429c1.921-3.63,3.979-7.24,6.213-10.816
		C107.936,182.627,111.641,177.737,115.658,173.171z M76.614,285.892c0.491-18.792,3.256-38.516,9.568-58.115h39.19
		c-4.134,19.949-4.313,39.594-2.059,58.115H76.614z"></path></g></svg>