<?xml version="1.0" encoding="iso-8859-1"?>
<!DOCTYPE svg PUBLIC "-//W3C//DTD SVG 1.1//EN" "http://www.w3.org/Graphics/SVG/1.1/DTD/svg11.dtd">
<svg 
 version="1.1" xmlns="http://www.w3.org/2000/svg" xmlns:xlink="http://www.w3.org/1999/xlink" x="0px" y="0px" width="512px"
	 height="512px" viewBox="0 0 512 512" style="enable-background:new 0 0 512 512;" xml:space="preserve"
><g fill="#ffffff" id="afcae5a789ccd549f9c6e2a2f81ca0b2"><g fill="#ffffff"></g><path style="display: inline; evenodd; clip-rule: evenodd;" d="M194.507,258.274
		c-26.452,31.826-40.708,72.542-44.767,85.367c0.1-43.225,3.182-91.733,11.844-141.91c5.352-7.748,19.508-26.873,41.66-47.125
		c18.821-17.22,47.549-32.042,62.22-49.981c10.271-12.567,14.713-25.163,16.593-34.861h31.405
		c5.048,12.081,10.246,26.187,15.511,42.837c0.898,2.845,1.705,5.685,2.562,8.529c-6.565,10.837-21.807,33.622-48.472,60.968
		C258.836,206.95,216.648,231.635,194.507,258.274z M283.131,52.328h22.48C277.666-4.894,256.008,0.646,256.008,0.646
		s-21.662-5.54-49.611,51.682h57.355H283.131z M200.059,126.5c14.33-11.386,33.696-19.853,45.353-32.536
		c7.735-8.405,12.177-17.004,14.764-24.199h-61.63c-5.049,12.081-10.238,26.187-15.503,42.837
		c-5.156,16.293-9.54,32.641-13.324,48.921C175.499,152.453,186.191,137.511,200.059,126.5z M308.9,328.937
		c23.566-20.451,42.014-54.381,49.291-68.99c-3.322-34.353-8.957-70.237-17.814-106.392c-7.86,13.05-22.947,35.077-46.875,58.286
		c-24.706,23.957-65.743,45.823-89.043,71.83c-34.474,38.467-54.044,93.176-54.044,93.176l-0.324-4.895
		c1.239,45.819,5.498,83.778,9.107,108.713c7.893-18.71,25.305-54.947,51.782-82.896C230.375,377.292,266.82,365.448,308.9,328.937z
		 M301.661,368.95c-26.864,20.326-59.9,37.389-85.95,61.592c-28.835,26.798-45.444,65.542-51.258,80.958h183.184
		c2.287-11.336,18.206-94.977,13.881-202.749C354.766,317.455,331.145,346.644,301.661,368.95z"></path></g></svg>